HIERARCHY
ROOT Hips
{
	OFFSET 0.00000 0.00000 0.00000
	CHANNELS 6 Xposition Yposition Zposition Zrotation Yrotation Xrotation 
	JOINT LHipJoint
	{
		OFFSET 0 0 0
		CHANNELS 3 Zrotation Yrotation Xrotation
		JOINT LeftUpLeg
		{
			OFFSET 1.92384 -1.64427 0.83032
			CHANNELS 3 Zrotation Yrotation Xrotation
			JOINT LeftLeg
			{
				OFFSET 2.52872 -6.94761 0.00000
				CHANNELS 3 Zrotation Yrotation Xrotation
				JOINT LeftFoot
				{
					OFFSET 2.51827 -6.91890 0.00000
					CHANNELS 3 Zrotation Yrotation Xrotation
					JOINT LeftToeBase
					{
						OFFSET 0.22757 -0.62524 2.06528
						CHANNELS 3 Zrotation Yrotation Xrotation
						End Site
						{
							OFFSET 0.00000 -0.00000 1.08218
						}
					}
				}
			}
		}
	}
	JOINT RHipJoint
	{
		OFFSET 0 0 0
		CHANNELS 3 Zrotation Yrotation Xrotation
		JOINT RightUpLeg
		{
			OFFSET -2.09517 -1.64427 0.83032
			CHANNELS 3 Zrotation Yrotation Xrotation
			JOINT RightLeg
			{
				OFFSET -2.55173 -7.01082 0.00000
				CHANNELS 3 Zrotation Yrotation Xrotation
				JOINT RightFoot
				{
					OFFSET -2.50265 -6.87598 0.00000
					CHANNELS 3 Zrotation Yrotation Xrotation
					JOINT RightToeBase
					{
						OFFSET -0.22612 -0.62126 1.98677
						CHANNELS 3 Zrotation Yrotation Xrotation
						End Site
						{
							OFFSET -0.00000 -0.00000 1.04433
						}
					}
				}
			}
		}
	}
	JOINT LowerBack
	{
		OFFSET 0 0 0
		CHANNELS 3 Zrotation Yrotation Xrotation
		JOINT Spine
		{
			OFFSET 0.02839 1.68926 0.31690
			CHANNELS 3 Zrotation Yrotation Xrotation
			JOINT Spine1
			{
				OFFSET -0.01522 1.70183 0.21192
				CHANNELS 3 Zrotation Yrotation Xrotation
				JOINT Neck
				{
					OFFSET 0 0 0
					CHANNELS 3 Zrotation Yrotation Xrotation
					JOINT Neck1
					{
						OFFSET -0.04523 1.88988 0.10630
						CHANNELS 3 Zrotation Yrotation Xrotation
						JOINT Head
						{
							OFFSET 0.05172 1.78070 -0.56858
							CHANNELS 3 Zrotation Yrotation Xrotation
							End Site
							{
								OFFSET 0.01532 1.90392 -0.20434
							}
						}
					}
				}
				JOINT LeftShoulder
				{
					OFFSET 0 0 0
					CHANNELS 3 Zrotation Yrotation Xrotation
					JOINT LeftArm
					{
						OFFSET 3.25522 0.75486 0.22086
						CHANNELS 3 Zrotation Yrotation Xrotation
						JOINT LeftForeArm
						{
							OFFSET 4.85645 -0.00000 0.00000
							CHANNELS 3 Zrotation Yrotation Xrotation
							JOINT LeftHand
							{
								OFFSET 2.79874 -0.00000 0.00000
								CHANNELS 3 Zrotation Yrotation Xrotation
								JOINT LeftFingerBase
								{
									OFFSET 0 0 0
									CHANNELS 3 Zrotation Yrotation Xrotation
									JOINT LeftHandIndex1
									{
										OFFSET 0.57340 -0.00000 0.00000
										CHANNELS 3 Zrotation Yrotation Xrotation
										End Site
										{
											OFFSET 0.46229 -0.00000 0.00000
										}
									}
								}
								JOINT LThumb
								{
									OFFSET 0 0 0
									CHANNELS 3 Zrotation Yrotation Xrotation
									End Site
									{
										OFFSET 0.46935 -0.00000 0.46935
									}
								}
							}
						}
					}
				}
				JOINT RightShoulder
				{
					OFFSET 0 0 0
					CHANNELS 3 Zrotation Yrotation Xrotation
					JOINT RightArm
					{
						OFFSET -3.29079 0.52751 0.36356
						CHANNELS 3 Zrotation Yrotation Xrotation
						JOINT RightForeArm
						{
							OFFSET -4.67018 -0.00000 0.00000
							CHANNELS 3 Zrotation Yrotation Xrotation
							JOINT RightHand
							{
								OFFSET -2.65534 -0.00000 0.00000
								CHANNELS 3 Zrotation Yrotation Xrotation
								JOINT RightFingerBase
								{
									OFFSET 0 0 0
									CHANNELS 3 Zrotation Yrotation Xrotation
									JOINT RightHandIndex1
									{
										OFFSET -0.59407 -0.00000 0.00000
										CHANNELS 3 Zrotation Yrotation Xrotation
										End Site
										{
											OFFSET -0.47895 -0.00000 0.00000
										}
									}
								}
								JOINT RThumb
								{
									OFFSET 0 0 0
									CHANNELS 3 Zrotation Yrotation Xrotation
									End Site
									{
										OFFSET -0.48627 -0.00000 0.48627
									}
								}
							}
						}
					}
				}
			}
		}
	}
}
MOTION
Frames: 5
Frame Time: .0083333
9.2914 11.9111 19.5665 8.4317 -8.9364 44.6337 0.0000 0.0000 0.0000 -1.4493 -22.5738 -121.1519 17.3974 19.8368 82.3707 0.0570 1.3978 -5.2540 0.7226 -5.4317 -15.1440 0.0000 0.0000 0.0000 -17.1584 11.3817 -128.7732 -20.3915 -19.9963 91.1446 -0.1627 -1.5726 7.2322 -0.0493 1.4324 -3.9395 -10.1539 -0.6989 -22.6150 -3.9196 0.9803 -13.4756 1.6746 0.9563 -2.4486 -3.0453 -1.3807 -18.4351 0.8214 -1.2921 43.8023 0.6861 -0.9039 20.4773 0.0000 -0.0000 0.0000 -39.8025 31.5039 84.5869 84.1814 -59.8717 -54.9632 -0.0000 0.0000 -6.3331 55.0735 32.4661 37.5505 -7.1250 0.0000 -0.0000 46.0856 73.7160 33.0106 0.0000 -0.0000 0.0000 41.5627 -35.1270 82.9573 -86.6465 59.9575 -57.0962 0.0000 0.0000 16.3015 -58.3548 -25.5161 34.9521 7.1250 -0.0000 -0.0000 -44.7212 -67.1012 25.8340
9.2899 11.9508 19.5728 8.4132 -8.9633 45.0220 0.0000 0.0000 0.0000 -1.3806 -22.5802 -121.2167 17.2396 19.8163 81.9053 0.0560 1.3279 -5.1682 0.7315 -5.4643 -15.2376 0.0000 0.0000 0.0000 -17.4001 11.3947 -128.7980 -20.2477 -19.9985 90.7243 -0.1623 -1.6574 7.2107 -0.0542 1.5027 -4.1332 -10.1959 -0.7127 -22.6969 -3.9058 0.9772 -13.5305 1.7115 0.9609 -2.4739 -3.0780 -1.4010 -18.5180 0.7979 -1.2947 43.6569 0.6785 -0.9118 20.4013 0.0000 -0.0000 0.0000 -40.1413 31.2033 84.5629 82.8573 -59.8063 -53.8182 -0.0000 0.0000 -6.2303 55.3373 32.6168 37.9373 -7.1250 0.0000 -0.0000 47.1247 73.9230 34.0219 0.0000 -0.0000 0.0000 41.8457 -34.9672 82.8916 -85.6059 59.9269 -56.1955 0.0000 0.0000 16.4130 -58.7309 -25.7405 35.5708 7.1250 -0.0000 -0.0000 -45.9307 -67.4614 27.0077
9.2884 11.9906 19.5784 8.4180 -8.9849 45.3643 0.0000 0.0000 0.0000 -1.3520 -22.6071 -121.2187 17.0781 19.7941 81.4286 0.0565 1.2309 -5.1214 0.7446 -5.5120 -15.3748 0.0000 0.0000 0.0000 -17.6606 11.3917 -128.7796 -20.1085 -19.9997 90.3171 -0.1615 -1.7284 7.1848 -0.0592 1.5703 -4.3195 -10.2472 -0.7340 -22.7627 -3.8919 0.9647 -13.5734 1.7518 0.9607 -2.4930 -3.1139 -1.4147 -18.5892 0.7766 -1.2869 43.5096 0.6750 -0.9160 20.3208 -0.0000 -0.0000 0.0000 -40.5068 30.9329 84.4863 81.5579 -59.7290 -52.6956 -0.0000 0.0000 -6.0958 55.5667 32.7957 38.3110 -7.1250 0.0000 -0.0000 48.1314 74.1477 35.0342 -0.0000 -0.0000 0.0000 42.1269 -34.7978 82.8153 -84.6046 59.8897 -55.3292 0.0000 0.0000 16.5174 -59.0803 -25.9535 36.1547 7.1250 -0.0000 -0.0000 -47.0958 -67.7953 28.1472
9.2870 12.0305 19.5832 8.4435 -8.9971 45.6597 0.0000 0.0000 0.0000 -1.3626 -22.6564 -121.1582 16.9121 19.7698 80.9381 0.0578 1.1186 -5.0982 0.7591 -5.5643 -15.5252 0.0000 0.0000 0.0000 -17.9345 11.3756 -128.7166 -19.9731 -20.0000 89.9215 -0.1606 -1.8003 7.1566 -0.0638 1.6297 -4.4833 -10.3014 -0.7614 -22.8056 -3.8777 0.9427 -13.6056 1.7923 0.9556 -2.5103 -3.1522 -1.4210 -18.6573 0.7595 -1.2684 43.3742 0.6765 -0.9161 20.2479 0.0000 -0.0000 0.0000 -40.8876 30.6895 84.3872 80.2904 -59.6408 -51.6014 -0.0000 0.0000 -5.9595 55.7676 32.9589 38.6442 -7.1250 0.0000 -0.0000 49.0464 74.3476 35.9592 0.0000 -0.0000 0.0000 42.3966 -34.6125 82.7423 -83.6171 59.8455 -54.4751 0.0000 0.0000 16.6075 -59.4185 -26.1516 36.7160 7.1250 -0.0000 -0.0000 -48.2448 -68.1038 29.2704
9.2851 12.0694 19.5853 8.4657 -8.9662 45.9149 0.0000 0.0000 0.0000 -1.3624 -22.7225 -121.0571 16.7400 19.7433 80.4289 0.0589 0.9992 -5.0672 0.7718 -5.6096 -15.6558 0.0000 0.0000 0.0000 -18.1965 11.3578 -128.6137 -19.8392 -19.9994 89.5300 -0.1595 -1.9044 7.1219 -0.0679 1.6817 -4.6268 -10.3300 -0.7909 -22.7561 -3.8544 0.8996 -13.6477 1.8232 0.9410 -2.5803 -3.1895 -1.4202 -18.7229 0.7464 -1.2411 43.2580 0.6819 -0.9122 20.1875 -0.0000 -0.0000 0.0000 -41.2688 30.4711 84.2906 79.0464 -59.5417 -50.5285 -0.0000 0.0000 -5.8507 55.9384 33.1483 38.9659 -7.1250 0.0000 -0.0000 49.9336 74.5649 36.8861 -0.0000 -0.0000 0.0000 42.6562 -34.4142 82.6753 -82.6259 59.7935 -53.6182 0.0000 0.0000 16.6888 -59.7389 -26.3436 37.2558 7.1250 -0.0000 -0.0000 -49.3707 -68.3952 30.3783
